<svg xmlns="http://www.w3.org/2000/svg" xmlns:xlink="http://www.w3.org/1999/xlink" viewBox="0 0 100 125" version="1.1" x="0px" y="0px"><title>9</title><desc>Created with Sketch.</desc><g stroke="none" stroke-width="1" fill="none" fill-rule="evenodd"><g fill="#000000"><path d="M65.1212157,68.1852015 C64.3808235,67.397382 63.1398431,67.3575023 62.3496471,68.0960586 L59.392,70.8604647 C58.6021961,71.5988256 58.5621961,72.8360737 59.3027843,73.6236977 C59.6886667,74.0342241 60.2104314,74.2414421 60.7335686,74.2414421 C61.2141569,74.2414421 61.6959216,74.0662842 62.0743529,73.7128406 L65.032,70.9484346 C65.8218039,70.2098782 65.8618039,68.9728256 65.1212157,68.1852015 M96.0784314,36.9380301 C96.0784314,39.8017444 94.4858824,42.3006767 92.1378431,43.603609 C92.0231373,43.6671429 91.907451,43.7281353 91.7896078,43.785609 C91.7770588,43.7918647 91.7647059,43.7987068 91.7519608,43.8047669 C91.615098,43.8706466 91.4760784,43.9318346 91.3358824,43.9893083 C91.3096078,44.0000602 91.2827451,44.0100301 91.2562745,44.0205865 C91.1347059,44.0688722 91.0119608,44.1142256 90.8882353,44.1560602 C90.864902,44.1638797 90.8419608,44.1718947 90.8186275,44.1795188 C90.5192157,44.2776541 90.2141176,44.358 89.9045098,44.418797 C89.8976471,44.4199699 89.8903922,44.4211429 89.8833333,44.4225113 C89.7429412,44.4494887 89.6015686,44.4719699 89.4598039,44.4911278 C89.4268627,44.4956241 89.3943137,44.4997293 89.3613725,44.5036391 C89.2405882,44.5184962 89.1194118,44.5298346 88.9978431,44.5390226 C88.9615686,44.5415639 88.9256863,44.5450827 88.8894118,44.5472331 C88.7372549,44.5564211 88.5843137,44.5620902 88.4313725,44.5620902 C88.4243137,44.5620902 88.4170588,44.5615038 88.4098039,44.5615038 C88.2988235,44.5613083 88.1888235,44.5581805 88.0788235,44.5530977 C88.0278431,44.5507519 87.977451,44.5470376 87.9266667,44.5437143 C87.8635294,44.539609 87.8009804,44.5349173 87.7384314,44.5294436 C87.672549,44.523188 87.6066667,44.5165414 87.5411765,44.5087218 C87.5017647,44.5042256 87.4623529,44.4989474 87.4231373,44.4936692 C85.2982353,44.2090376 83.3998039,43.0386466 82.1829412,41.3249925 C82.1662745,41.3015338 82.1492157,41.2786617 82.1329412,41.2550075 C82.0943137,41.1989023 82.0566667,41.1418195 82.0194118,41.0849323 C81.9937255,41.0454436 81.9678431,41.0059549 81.9429412,40.9660752 C81.9103922,40.9142707 81.8786275,40.8618797 81.8472549,40.8090977 C81.8192157,40.7621805 81.7921569,40.7146767 81.7652941,40.6671729 C81.7368627,40.6173233 81.7090196,40.5676692 81.6817647,40.5172331 C81.6537255,40.4644511 81.6266667,40.4106917 81.5996078,40.3571278 C81.5752941,40.3092331 81.5503922,40.2617293 81.5270588,40.2132481 C81.4939216,40.1440451 81.4629412,40.0736692 81.4317647,40.0030977 C81.3939216,39.9176692 81.3580392,39.8312632 81.3233333,39.7440752 C81.3058824,39.7002857 81.2876471,39.6566917 81.2711765,39.6123158 C81.2458824,39.5454586 81.222549,39.4778195 81.1992157,39.4101805 C81.1864706,39.3730376 81.1735294,39.3360902 81.1613725,39.2987519 C81.1372549,39.2250526 81.1143137,39.1505714 81.0923529,39.0758947 C80.8933333,38.3969624 80.7843137,37.6801053 80.7843137,36.9380301 L80.7843137,32.0762256 L96.0784314,32.0762256 L96.0784314,36.9380301 Z M91.1992157,48.1362105 L91.1992157,84.7614135 L84.0294118,84.7614135 L84.0294118,55.2130977 C84.0294118,54.1334135 83.1513725,53.2582105 82.0686275,53.2582105 L17.9941176,53.2582105 C16.9111765,53.2582105 16.0333333,54.1334135 16.0333333,55.2130977 L16.0333333,84.7614135 L8.86313725,84.7614135 L8.86313725,48.1514586 C8.88294118,48.1561504 8.90294118,48.1592782 8.9227451,48.1637744 C9.10235294,48.206 9.28352941,48.2437293 9.46627451,48.2773534 C9.50901961,48.2853684 9.55176471,48.2929925 9.59490196,48.3004211 C9.76509804,48.3297444 9.93666667,48.3549624 10.1094118,48.3768571 C10.1590196,48.3831128 10.2084314,48.3901504 10.2582353,48.3958195 C10.4280392,48.4149774 10.5992157,48.4296391 10.7711765,48.4413684 C10.8196078,48.4446917 10.8678431,48.4495789 10.9164706,48.4523158 C11.132549,48.4644361 11.3498039,48.4718647 11.5688235,48.4718647 C11.5723529,48.4718647 11.5754902,48.4716692 11.5790196,48.4716692 C11.7480392,48.4714737 11.9162745,48.466391 12.0841176,48.4587669 C12.1313725,48.456812 12.1784314,48.4546617 12.2256863,48.4521203 C12.3788235,48.4433233 12.5315686,48.431985 12.6835294,48.4173233 C12.7552941,48.4104812 12.8264706,48.4016842 12.8976471,48.3934737 C12.9778431,48.3840902 13.0576471,48.3739248 13.1370588,48.3629774 C16.3347059,47.928797 19.1194118,46.1885564 20.9327451,43.6990075 C20.972549,43.6446617 21.0113725,43.5895338 21.0501961,43.5346015 C21.0921569,43.4745865 21.1354902,43.4155489 21.1764706,43.3547519 C21.2166667,43.4143759 21.2590196,43.4722406 21.3003922,43.5308872 C21.3401961,43.5877744 21.3803922,43.6446617 21.4213725,43.7007669 C23.234902,46.1893383 26.0192157,47.928797 29.2158824,48.3629774 C29.2954902,48.3739248 29.3752941,48.3840902 29.4554902,48.3934737 C29.5268627,48.4016842 29.5978431,48.4104812 29.6696078,48.4173233 C29.8215686,48.431985 29.9743137,48.4433233 30.127451,48.4521203 C30.1747059,48.4546617 30.2219608,48.456812 30.2690196,48.4587669 C30.4368627,48.466391 30.605098,48.4714737 30.7741176,48.4716692 C30.7776471,48.4716692 30.7807843,48.4718647 30.7843137,48.4718647 C30.7878431,48.4718647 30.7909804,48.4716692 30.7945098,48.4716692 C30.9635294,48.4714737 31.1317647,48.466391 31.2996078,48.4587669 C31.3466667,48.456812 31.3939216,48.4546617 31.4411765,48.4521203 C31.5943137,48.4433233 31.7470588,48.431985 31.8990196,48.4173233 C31.9707843,48.4104812 32.0417647,48.4016842 32.1129412,48.3934737 C32.1933333,48.3840902 32.2731373,48.3739248 32.3527451,48.3629774 C35.5494118,47.928797 38.3335294,46.1895338 40.1468627,43.7011579 C40.1880392,43.6448571 40.2284314,43.5877744 40.2686275,43.5304962 C40.3098039,43.4718496 40.3521569,43.4141805 40.3921569,43.3547519 C40.4321569,43.4143759 40.4747059,43.4720451 40.5160784,43.5308872 C40.5558824,43.5877744 40.5960784,43.6446617 40.6370588,43.7007669 C42.4505882,46.1893383 45.234902,47.928797 48.4315686,48.3629774 C48.5111765,48.3739248 48.5909804,48.3840902 48.6711765,48.3934737 C48.742549,48.4016842 48.8135294,48.4104812 48.8852941,48.4173233 C49.0372549,48.431985 49.19,48.4433233 49.3431373,48.4521203 C49.3903922,48.4546617 49.4376471,48.456812 49.4847059,48.4587669 C49.652549,48.466391 49.8207843,48.4714737 49.9898039,48.4716692 C49.9933333,48.4716692 49.9964706,48.4718647 50,48.4718647 C50.0035294,48.4718647 50.0066667,48.4716692 50.0101961,48.4716692 C50.1792157,48.4714737 50.347451,48.466391 50.5152941,48.4587669 C50.5623529,48.456812 50.6096078,48.4546617 50.6568627,48.4521203 C50.81,48.4433233 50.9627451,48.431985 51.1147059,48.4173233 C51.1864706,48.4104812 51.257451,48.4016842 51.3286275,48.3934737 C51.4090196,48.3840902 51.4888235,48.3739248 51.5684314,48.3629774 C54.765098,47.928797 57.5492157,46.1895338 59.362549,43.7011579 C59.4037255,43.6448571 59.4441176,43.5877744 59.4843137,43.5304962 C59.5254902,43.4718496 59.5678431,43.4141805 59.6078431,43.3547519 C59.6478431,43.4143759 59.6903922,43.4720451 59.7317647,43.5308872 C59.7715686,43.5877744 59.8117647,43.6446617 59.8527451,43.7007669 C61.6662745,46.1893383 64.4505882,47.928797 67.6472549,48.3629774 C67.7268627,48.3739248 67.8066667,48.3840902 67.8868627,48.3934737 C67.9582353,48.4016842 68.0292157,48.4104812 68.1009804,48.4173233 C68.2529412,48.431985 68.4056863,48.4433233 68.5588235,48.4521203 C68.6060784,48.4546617 68.6533333,48.456812 68.7003922,48.4587669 C68.8682353,48.466391 69.0364706,48.4714737 69.2054902,48.4716692 C69.2090196,48.4716692 69.2121569,48.4718647 69.2156863,48.4718647 C69.2192157,48.4718647 69.2223529,48.4716692 69.2258824,48.4716692 C69.394902,48.4714737 69.5631373,48.466391 69.7309804,48.4587669 C69.7780392,48.456812 69.8252941,48.4546617 69.872549,48.4521203 C70.0256863,48.4433233 70.1784314,48.431985 70.3303922,48.4173233 C70.4021569,48.4104812 70.4731373,48.4016842 70.5443137,48.3934737 C70.6247059,48.3840902 70.7045098,48.3739248 70.7841176,48.3629774 C73.9807843,47.928797 76.764902,46.1895338 78.5782353,43.7011579 C78.6194118,43.6448571 78.6598039,43.5877744 78.7,43.5304962 C78.7411765,43.4718496 78.7835294,43.4141805 78.8235294,43.3547519 C78.8635294,43.4143759 78.9060784,43.4720451 78.947451,43.5308872 C78.9872549,43.5877744 79.027451,43.6446617 79.0684314,43.7007669 C80.8819608,46.1893383 83.6662745,47.928797 86.8629412,48.3629774 C86.942549,48.3739248 87.0223529,48.3840902 87.102549,48.3934737 C87.1739216,48.4016842 87.244902,48.4104812 87.3166667,48.4173233 C87.4686275,48.431985 87.6213725,48.4433233 87.7745098,48.4521203 C87.8217647,48.4546617 87.8690196,48.456812 87.9160784,48.4587669 C88.0839216,48.466391 88.2521569,48.4714737 88.4211765,48.4716692 C88.4247059,48.4716692 88.4278431,48.4718647 88.4313725,48.4718647 C88.6537255,48.4718647 88.8743137,48.4640451 89.0937255,48.4515338 C89.145098,48.4486015 89.1958824,48.4435188 89.2472549,48.44 C89.4207843,48.4278797 89.5931373,48.4126316 89.7643137,48.3928872 C89.8160784,48.3868271 89.8672549,48.379985 89.9186275,48.3733383 C90.0970588,48.3502707 90.2739216,48.3234887 90.4496078,48.2926015 C90.4890196,48.2855639 90.5284314,48.2787218 90.5678431,48.2714887 C90.7721569,48.2331729 90.975098,48.1901654 91.1754902,48.1412932 C91.1835294,48.1393383 91.1913725,48.1379699 91.1992157,48.1362105 L91.1992157,48.1362105 Z M19.954902,84.761218 L80.1078431,84.761218 L80.1078431,57.167985 L19.954902,57.167985 L19.954902,84.761218 Z M3.92156863,32.0762256 L19.2156863,32.0762256 L19.2156863,36.9380301 C19.2156863,37.6832331 19.1058824,38.4028271 18.9052941,39.0839098 C18.8847059,39.1538947 18.8631373,39.2234887 18.8407843,39.2926917 C18.8264706,39.3362857 18.8113725,39.3792932 18.7964706,39.4224962 C18.775098,39.4844662 18.7537255,39.5464361 18.7305882,39.6078195 C18.7101961,39.6623609 18.6882353,39.7161203 18.6662745,39.7700752 C18.6460784,39.8207068 18.6266667,39.8715338 18.6054902,39.9213835 C18.5627451,40.0210827 18.5178431,40.1194135 18.4709804,40.2169624 C18.4511765,40.258797 18.4292157,40.2998496 18.4086275,40.3414887 C18.3782353,40.4016992 18.3476471,40.4621053 18.3158824,40.5215338 C18.2909804,40.5676692 18.2652941,40.613218 18.2394118,40.6589624 C18.2101961,40.7111579 18.1803922,40.7631579 18.1496078,40.8147669 C18.1203922,40.8636391 18.0907843,40.9125113 18.0603922,40.960797 C18.0329412,41.0049774 18.0041176,41.0487669 17.9756863,41.0923609 C17.9407843,41.1455338 17.9058824,41.1989023 17.8698039,41.2510977 C17.8494118,41.2804211 17.8284314,41.3091579 17.8076471,41.3380902 C16.5901961,43.0447068 14.6960784,44.210015 12.5764706,44.4938647 C12.5372549,44.4989474 12.4986275,44.5042256 12.4596078,44.5087218 C12.3937255,44.5165414 12.327451,44.5233835 12.2611765,44.5294436 C12.1992157,44.5349173 12.1366667,44.5394135 12.0741176,44.5435188 C12.0231373,44.5470376 11.9723529,44.5507519 11.9211765,44.5530977 C11.8115686,44.5581805 11.7017647,44.5611128 11.5911765,44.5615038 C11.5837255,44.5615038 11.5760784,44.5620902 11.5686275,44.5620902 C11.4172549,44.5620902 11.2660784,44.5564211 11.1152941,44.5476241 C11.0794118,44.5454737 11.0439216,44.5419549 11.0082353,44.5394135 C10.8890196,44.5306165 10.7703922,44.5196692 10.6517647,44.5053985 C10.617451,44.5012932 10.5835294,44.4969925 10.5492157,44.4923008 C10.4178431,44.4747068 10.2870588,44.453985 10.1568627,44.4297444 C10.1403922,44.4266165 10.1235294,44.4238797 10.1068627,44.4207519 C9.8045098,44.3621053 9.50607843,44.2848872 9.21333333,44.1904662 C9.18588235,44.1814737 9.15843137,44.1716992 9.13078431,44.1625113 C9.01941176,44.1251729 8.90882353,44.0849023 8.79921569,44.0424812 C8.75862745,44.0266466 8.71843137,44.011203 8.67823529,43.994782 C8.57666667,43.9535338 8.47627451,43.9091579 8.37647059,43.8634135 C8.33921569,43.8462105 8.30117647,43.8303759 8.26411765,43.812782 C8.1427451,43.7547218 8.02294118,43.6925564 7.9045098,43.6280451 C5.53333333,42.3317594 3.92156863,39.8193383 3.92156863,36.9380301 L3.92156863,32.0762256 Z M12.9045098,14.9097744 L24.7711765,14.9097744 L19.814902,28.1664511 L5.33352941,28.1664511 L12.9045098,14.9097744 Z M71.1570588,14.9097744 L76.1135294,28.1664511 L61.3339216,28.1664511 L58.7172549,14.9097744 L71.1570588,14.9097744 Z M54.7203922,14.9097744 L57.3370588,28.1664511 L42.7762745,28.1664511 L45.3933333,14.9097744 L54.7203922,14.9097744 Z M41.3964706,14.9097744 L38.7796078,28.1664511 L23.9998039,28.1664511 L28.9564706,14.9097744 L41.3964706,14.9097744 Z M31.6743137,44.5087218 C31.6088235,44.5165414 31.5431373,44.523188 31.4772549,44.5294436 C31.414902,44.5349173 31.3519608,44.539609 31.2888235,44.5437143 C31.2382353,44.5470376 31.1878431,44.5507519 31.1368627,44.5530977 C31.0270588,44.5581805 30.9168627,44.5613083 30.8058824,44.5615038 C30.7986275,44.5615038 30.7913725,44.5620902 30.7843137,44.5620902 C30.7772549,44.5620902 30.77,44.5615038 30.7627451,44.5615038 C30.6517647,44.5613083 30.5417647,44.5581805 30.4317647,44.5530977 C30.3807843,44.5507519 30.3303922,44.5470376 30.2796078,44.5437143 C30.2164706,44.539609 30.1539216,44.5349173 30.0913725,44.5294436 C30.0254902,44.523188 29.9596078,44.5165414 29.8941176,44.5087218 C29.8547059,44.5042256 29.8152941,44.4989474 29.7760784,44.4936692 C27.6511765,44.2090376 25.7527451,43.0386466 24.5358824,41.3249925 C24.5192157,41.3015338 24.5021569,41.2786617 24.4858824,41.2550075 C24.4472549,41.1989023 24.4096078,41.1418195 24.3723529,41.0849323 C24.3466667,41.0454436 24.3207843,41.0059549 24.2958824,40.9660752 C24.2633333,40.9142707 24.2315686,40.8618797 24.2001961,40.8090977 C24.1721569,40.7621805 24.145098,40.7146767 24.1182353,40.6671729 C24.0898039,40.6173233 24.0619608,40.5676692 24.0347059,40.5172331 C24.0066667,40.4644511 23.9796078,40.4106917 23.952549,40.3571278 C23.9282353,40.3092331 23.9033333,40.2617293 23.88,40.2132481 C23.8468627,40.1440451 23.8158824,40.0736692 23.7847059,40.0030977 C23.7468627,39.9176692 23.7109804,39.8312632 23.6762745,39.7440752 C23.6588235,39.7002857 23.6405882,39.6566917 23.6241176,39.6123158 C23.5988235,39.5454586 23.5754902,39.4778195 23.5521569,39.4101805 C23.5394118,39.3730376 23.5264706,39.3360902 23.5143137,39.2987519 C23.4901961,39.2250526 23.4672549,39.1505714 23.4452941,39.0758947 C23.2462745,38.3969624 23.1372549,37.6801053 23.1372549,36.9380301 L23.1372549,32.0762256 L38.4313725,32.0762256 L38.4313725,36.9380301 C38.4313725,37.6832331 38.3215686,38.4028271 38.1209804,39.0839098 C38.1003922,39.1538947 38.0788235,39.2234887 38.0564706,39.2926917 C38.0421569,39.3362857 38.0270588,39.3792932 38.0121569,39.4224962 C37.9907843,39.4844662 37.9694118,39.5464361 37.9462745,39.6076241 C37.9256863,39.6627519 37.9035294,39.7167068 37.8815686,39.7712481 C37.8615686,39.8212932 37.8421569,39.8717293 37.8211765,39.921188 C37.7784314,40.0210827 37.7333333,40.119609 37.6866667,40.2171579 C37.6668627,40.2586015 37.6452941,40.2992632 37.6247059,40.3403158 C37.5941176,40.4011128 37.5635294,40.4619098 37.5313725,40.5217293 C37.5066667,40.5676692 37.4809804,40.6130226 37.4554902,40.6583759 C37.4258824,40.7109624 37.3960784,40.7631579 37.365098,40.8151579 C37.3358824,40.8638346 37.3064706,40.9123158 37.2764706,40.960406 C37.2486275,41.0049774 37.2198039,41.0489624 37.1911765,41.0929474 C37.1562745,41.1459248 37.1215686,41.1989023 37.0858824,41.2509023 C37.065098,41.2806165 37.0437255,41.3095489 37.022549,41.3390677 C35.8054902,43.0449023 33.9117647,44.2098195 31.7929412,44.4936692 C31.7533333,44.4989474 31.7139216,44.5042256 31.6743137,44.5087218 L31.6743137,44.5087218 Z M50.89,44.5087218 C50.8245098,44.5165414 50.7588235,44.523188 50.6929412,44.5294436 C50.6305882,44.5349173 50.5676471,44.539609 50.5045098,44.5437143 C50.4539216,44.5470376 50.4035294,44.5507519 50.352549,44.5530977 C50.2427451,44.5581805 50.132549,44.5613083 50.0215686,44.5615038 C50.0143137,44.5615038 50.0070588,44.5620902 50,44.5620902 C49.9929412,44.5620902 49.9856863,44.5615038 49.9784314,44.5615038 C49.867451,44.5613083 49.757451,44.5581805 49.647451,44.5530977 C49.5964706,44.5507519 49.5460784,44.5470376 49.4952941,44.5437143 C49.4321569,44.539609 49.3696078,44.5349173 49.3070588,44.5294436 C49.2411765,44.523188 49.1752941,44.5165414 49.1098039,44.5087218 C49.0703922,44.5042256 49.0309804,44.4989474 48.9917647,44.4936692 C46.8668627,44.2090376 44.9684314,43.0386466 43.7515686,41.3249925 C43.734902,41.3015338 43.7178431,41.2786617 43.7015686,41.2550075 C43.6629412,41.1989023 43.6252941,41.1418195 43.5880392,41.0849323 C43.5623529,41.0454436 43.5364706,41.0059549 43.5115686,40.9660752 C43.4790196,40.9142707 43.4472549,40.8618797 43.4158824,40.8090977 C43.3878431,40.7621805 43.3607843,40.7146767 43.3339216,40.6671729 C43.3054902,40.6173233 43.2776471,40.5676692 43.2503922,40.5172331 C43.2223529,40.4644511 43.1952941,40.4106917 43.1682353,40.3571278 C43.1439216,40.3092331 43.1190196,40.2617293 43.0956863,40.2132481 C43.062549,40.1440451 43.0315686,40.0736692 43.0003922,40.0030977 C42.962549,39.9176692 42.9266667,39.8312632 42.8919608,39.7440752 C42.8745098,39.7002857 42.8562745,39.6566917 42.8398039,39.6123158 C42.8145098,39.5454586 42.7911765,39.4778195 42.7678431,39.4101805 C42.755098,39.3730376 42.7421569,39.3360902 42.73,39.2987519 C42.7058824,39.2250526 42.6829412,39.1505714 42.6609804,39.0758947 C42.4619608,38.3969624 42.3529412,37.6801053 42.3529412,36.9380301 L42.3529412,32.0762256 L57.6470588,32.0762256 L57.6470588,36.9380301 C57.6470588,37.6832331 57.5372549,38.4028271 57.3366667,39.0839098 C57.3160784,39.1538947 57.2945098,39.2234887 57.2721569,39.2926917 C57.2578431,39.3362857 57.2427451,39.3792932 57.2278431,39.4224962 C57.2064706,39.4844662 57.185098,39.5464361 57.1619608,39.6076241 C57.1413725,39.6627519 57.1192157,39.7167068 57.0972549,39.7712481 C57.0772549,39.8212932 57.0578431,39.8717293 57.0368627,39.921188 C56.9941176,40.0210827 56.9490196,40.119609 56.9023529,40.2171579 C56.882549,40.2586015 56.8609804,40.2992632 56.8403922,40.3403158 C56.8098039,40.4011128 56.7792157,40.4619098 56.7470588,40.5217293 C56.7223529,40.5676692 56.6966667,40.6130226 56.6711765,40.6583759 C56.6415686,40.7109624 56.6117647,40.7631579 56.5807843,40.8151579 C56.5515686,40.8638346 56.5221569,40.9123158 56.4921569,40.960406 C56.4643137,41.0049774 56.4354902,41.0489624 56.4068627,41.0929474 C56.3719608,41.1459248 56.3372549,41.1989023 56.3015686,41.2509023 C56.2807843,41.2806165 56.2594118,41.3095489 56.2382353,41.3390677 C55.0211765,43.0449023 53.127451,44.2098195 51.0086275,44.4936692 C50.9690196,44.4989474 50.9296078,44.5042256 50.89,44.5087218 L50.89,44.5087218 Z M70.1056863,44.5087218 C70.0401961,44.5165414 69.9745098,44.523188 69.9086275,44.5294436 C69.8462745,44.5349173 69.7833333,44.539609 69.7201961,44.5437143 C69.6696078,44.5470376 69.6192157,44.5507519 69.5682353,44.5530977 C69.4584314,44.5581805 69.3482353,44.5613083 69.2372549,44.5615038 C69.23,44.5615038 69.2227451,44.5620902 69.2156863,44.5620902 C69.2086275,44.5620902 69.2013725,44.5615038 69.1941176,44.5615038 C69.0831373,44.5613083 68.9731373,44.5581805 68.8631373,44.5530977 C68.8121569,44.5507519 68.7617647,44.5470376 68.7109804,44.5437143 C68.6478431,44.539609 68.5852941,44.5349173 68.5227451,44.5294436 C68.4568627,44.523188 68.3909804,44.5165414 68.3254902,44.5087218 C68.2860784,44.5042256 68.2466667,44.4989474 68.207451,44.4936692 C66.082549,44.2090376 64.1841176,43.0386466 62.9672549,41.3249925 C62.9505882,41.3015338 62.9335294,41.2786617 62.9172549,41.2550075 C62.8786275,41.1989023 62.8409804,41.1418195 62.8037255,41.0849323 C62.7780392,41.0454436 62.7521569,41.0059549 62.7272549,40.9660752 C62.6947059,40.9142707 62.6629412,40.8618797 62.6315686,40.8090977 C62.6035294,40.7621805 62.5764706,40.7146767 62.5496078,40.6671729 C62.5211765,40.6173233 62.4933333,40.5676692 62.4660784,40.5172331 C62.4380392,40.4644511 62.4109804,40.4106917 62.3839216,40.3571278 C62.3596078,40.3092331 62.3347059,40.2617293 62.3113725,40.2132481 C62.2782353,40.1440451 62.2472549,40.0736692 62.2160784,40.0030977 C62.1782353,39.9176692 62.1423529,39.8312632 62.1076471,39.7440752 C62.0901961,39.7002857 62.0719608,39.6566917 62.0554902,39.6123158 C62.0301961,39.5454586 62.0068627,39.4778195 61.9835294,39.4101805 C61.9707843,39.3730376 61.9578431,39.3360902 61.9456863,39.2987519 C61.9215686,39.2250526 61.8986275,39.1505714 61.8766667,39.0758947 C61.6776471,38.3969624 61.5686275,37.6801053 61.5686275,36.9380301 L61.5686275,32.0762256 L76.8627451,32.0762256 L76.8627451,36.9380301 C76.8627451,37.6832331 76.7529412,38.4028271 76.5523529,39.0839098 C76.5317647,39.1538947 76.5101961,39.2234887 76.4878431,39.2926917 C76.4735294,39.3362857 76.4584314,39.3792932 76.4435294,39.4224962 C76.4221569,39.4844662 76.4007843,39.5464361 76.3776471,39.6076241 C76.3570588,39.6627519 76.334902,39.7167068 76.3129412,39.7712481 C76.2929412,39.8212932 76.2735294,39.8717293 76.252549,39.921188 C76.2098039,40.0210827 76.1647059,40.119609 76.1180392,40.2171579 C76.0982353,40.2586015 76.0766667,40.2992632 76.0560784,40.3403158 C76.0254902,40.4011128 75.994902,40.4619098 75.9627451,40.5217293 C75.9380392,40.5676692 75.9123529,40.6130226 75.8868627,40.6583759 C75.8572549,40.7109624 75.827451,40.7631579 75.7964706,40.8151579 C75.7672549,40.8638346 75.7378431,40.9123158 75.7078431,40.960406 C75.68,41.0049774 75.6511765,41.0489624 75.622549,41.0929474 C75.5876471,41.1459248 75.5529412,41.1989023 75.5172549,41.2509023 C75.4964706,41.2806165 75.475098,41.3095489 75.4539216,41.3390677 C74.2368627,43.0449023 72.3431373,44.2098195 70.2243137,44.4936692 C70.1847059,44.4989474 70.1452941,44.5042256 70.1056863,44.5087218 L70.1056863,44.5087218 Z M94.6329412,28.1664511 L80.2986275,28.1664511 L75.3421569,14.9097744 L86.9105882,14.9097744 L94.6329412,28.1664511 Z M99.9990196,30.1043308 C99.9984314,30.0308271 99.9931373,29.9581053 99.9845098,29.8865564 C99.9819608,29.8656391 99.9782353,29.8451128 99.974902,29.8241955 C99.9658824,29.7649624 99.9543137,29.7067068 99.94,29.6494286 C99.935098,29.6298797 99.9305882,29.6105263 99.925098,29.5911729 C99.9045098,29.5184511 99.8811765,29.4472932 99.8523529,29.3782857 C99.8515686,29.3759398 99.8507843,29.373594 99.8498039,29.3710526 C99.8190196,29.2971579 99.7829412,29.2258045 99.7431373,29.1566015 C99.7401961,29.1511278 99.7380392,29.1450677 99.7347059,29.1393985 L89.7347059,11.9731429 C89.3837255,11.3708421 88.7378431,11 88.0392157,11 L56.3531373,11 C56.3501961,11 56.3472549,11 56.3443137,11 L43.7696078,11 C43.7666667,11 43.7635294,11 43.7609804,11 L11.7647059,11 C11.06,11 10.4094118,11.3770977 10.0607843,11.987609 L0.256862745,29.1540602 C0.254509804,29.1579699 0.252941176,29.1622707 0.250588235,29.1663759 C0.211960784,29.235188 0.177058824,29.3063459 0.146862745,29.3800451 C0.142941176,29.3898195 0.14,29.3997895 0.136078431,29.4095639 C0.111372549,29.4721203 0.0903921569,29.5362406 0.0721568627,29.6017293 C0.0668627451,29.6212782 0.0617647059,29.6408271 0.0570588235,29.6605714 C0.0429411765,29.7190226 0.0315686275,29.7786466 0.022745098,29.8390526 C0.0201960784,29.8576241 0.0162745098,29.876 0.0143137255,29.8945714 C0.00549019608,29.9690526 0,30.0445113 0,30.1213383 L0,36.9380301 C0,40.8411579 1.95666667,44.2954436 4.94156863,46.3832632 L4.94156863,86.7163008 C4.94156863,87.795985 5.81960784,88.671188 6.90235294,88.671188 L17.9941176,88.671188 L82.0686275,88.671188 L93.16,88.671188 C94.2429412,88.671188 95.1207843,87.795985 95.1207843,86.7163008 L95.1207843,46.3390827 C98.0703922,44.2467669 100,40.813985 100,36.9380301 L100,30.1213383 C100,30.1205564 99.9998039,30.1201654 99.9998039,30.1193835 C99.9998039,30.1144962 99.9992157,30.1094135 99.9990196,30.1043308 L99.9990196,30.1043308 Z M36.4954902,62.3022226 C35.755098,61.514403 34.5141176,61.4745233 33.7239216,62.2130797 L28.2078431,67.3687038 C27.4180392,68.1072602 27.3780392,69.3443128 28.1186275,70.1319368 C28.5045098,70.5424632 29.0262745,70.7498767 29.5494118,70.7498767 C30.03,70.7498767 30.5117647,70.5747188 30.8901961,70.2210797 L36.4062745,65.0654556 C37.1960784,64.3268992 37.2360784,63.0898466 36.4954902,62.3022226 M38.7632157,66.6731353 L35.8055686,69.4375414 C35.0157647,70.1759023 34.9757647,71.4131504 35.7163529,72.2007744 C36.1022353,72.6113008 36.624,72.8187143 37.1471373,72.8187143 C37.6277255,72.8187143 38.1094902,72.6435564 38.4879216,72.2899173 L41.4455686,69.5255113 C42.2353725,68.7869549 42.2753725,67.5499023 41.5347843,66.7622782 C40.7941961,65.9744586 39.5532157,65.9347744 38.7632157,66.6731353 M68.514098,71.7082992 L62.9980196,76.8641188 C62.2082157,77.6024797 62.1682157,78.8397278 62.9088039,79.6273519 C63.2948824,80.0378782 63.816451,80.2450962 64.3395882,80.2450962 C64.8201765,80.2450962 65.3019412,80.0699383 65.6803725,79.7164947 L71.196451,74.5606752 C71.9862549,73.8221188 72.0262549,72.5850662 71.2856667,71.7974421 C70.5446863,71.0096226 69.304098,70.9699383 68.514098,71.7082992"/></g></g><text x="0" y="115" fill="#000000" font-size="5px" font-weight="bold" font-family="'Helvetica Neue', Helvetica, Arial-Unicode, Arial, Sans-serif">Created by AomAm</text><text x="0" y="120" fill="#000000" font-size="5px" font-weight="bold" font-family="'Helvetica Neue', Helvetica, Arial-Unicode, Arial, Sans-serif">from the Noun Project</text></svg>