<svg xmlns="http://www.w3.org/2000/svg" viewBox="0 0 32 40" x="0px" y="0px"><title>Mart</title><g><path d="M28,24H6a1,1,0,0,1-1-1V3H2A1,1,0,0,1,2,1H6A1,1,0,0,1,7,2V22H28a1,1,0,0,1,0,2Z"/><path d="M8,31a3,3,0,1,1,3-3A3,3,0,0,1,8,31Zm0-4a1,1,0,1,0,1,1A1,1,0,0,0,8,27Z"/><path d="M25,31a3,3,0,1,1,3-3A3,3,0,0,1,25,31Zm0-4a1,1,0,1,0,1,1A1,1,0,0,0,25,27Z"/><path d="M26,21H9a1,1,0,0,1-1-1V7A1,1,0,0,1,9,6H26a1,1,0,0,1,1,1V20A1,1,0,0,1,26,21ZM10,19H25V8H10Z"/></g><text x="0" y="47" fill="#000000" font-size="5px" font-weight="bold" font-family="'Helvetica Neue', Helvetica, Arial-Unicode, Arial, Sans-serif">Created by Bagus Kusnandar</text><text x="0" y="52" fill="#000000" font-size="5px" font-weight="bold" font-family="'Helvetica Neue', Helvetica, Arial-Unicode, Arial, Sans-serif">from the Noun Project</text></svg>